# xmcd CD database file
#
# Track frame offsets:
#	150
#	17947
#	38465
#	58332
#	81010
#	101685
#	123780
#	139052
#	160315
#	179647
#	200940
#	216170
#	239797
#	259365
#
# Disc length: 3725 seconds
#
# Revision: 0
# Processed by: cddbd v1.4PL0 Copyright (c) Steve Scherf et al.
# Submitted via: CDex 1.50beta10
#
DISCID=d60e8b0e
DTITLE=J. K. Novak and Co. - INS 37 Dixieland On The Street
DYEAR=1900
DGENRE=Country
TTITLE0=Nobody's Sweetheart
TTITLE1=Creole Love Call
TTITLE2=Ace In The Hole
TTITLE3=St. James Infirmary
TTITLE4=Ja-Da
TTITLE5=Aunt Hagar Childrens
TTITLE6=Alabama Jubilee
TTITLE7=Ain't Misbehavin'
TTITLE8=I've Found A New Baby
TTITLE9=On The Sunny Side
TTITLE10=When Erastus Plays
TTITLE11=The Mooch
TTITLE12=Rent Party Blues
TTITLE13=Washington and Lee
EXTD=
EXTT0=
EXTT1=
EXTT2=
EXTT3=
EXTT4=
EXTT5=
EXTT6=
EXTT7=
EXTT8=
EXTT9=
EXTT10=
EXTT11=
EXTT12=
EXTT13=
PLAYORDER=
